<svg width="22" height="22" viewBox="0 0 22 22" fill="none" xmlns="http://www.w3.org/2000/svg">
<path d="M17.4662 5.43252H18.109C18.3491 5.43252 18.5794 5.52791 18.7492 5.69771C18.919 5.86751 19.0144 6.0978 19.0144 6.33793V12.6758C19.0144 12.9159 18.919 13.1462 18.7492 13.316C18.5794 13.4858 18.3491 13.5812 18.109 13.5812H16.2982L12.5226 8.29722C12.3031 7.98997 11.9929 7.75906 11.6356 7.63681C11.2782 7.51456 10.8916 7.5071 10.5298 7.61545L8.27901 8.29089C7.9659 8.38462 7.63325 8.39186 7.31636 8.31184C6.99946 8.23182 6.71014 8.06752 6.47906 7.83637L6.21378 7.57109C6.11906 7.47639 6.04654 7.36186 6.00143 7.23576C5.95632 7.10965 5.93975 6.9751 5.95291 6.84182C5.96608 6.70853 6.00865 6.57983 6.07755 6.46498C6.14646 6.35014 6.23999 6.25201 6.3514 6.17767L11.2415 2.91821C11.5334 2.72347 11.8756 2.61774 12.2265 2.61388C12.5774 2.61002 12.9219 2.7082 13.218 2.89648L16.9809 5.29128C17.1257 5.38331 17.2946 5.43229 17.4662 5.43252ZM4.55145 12.9429L3.08832 14.2231C2.98832 14.3108 2.90886 14.4194 2.85558 14.5412C2.80231 14.6631 2.77653 14.7951 2.78007 14.9281C2.78361 15.061 2.8164 15.1915 2.87609 15.3104C2.93578 15.4292 3.02091 15.5334 3.12544 15.6156L7.77922 19.2735C7.88153 19.354 8 19.4115 8.12655 19.4421C8.25311 19.4727 8.38477 19.4756 8.51256 19.4507C8.64035 19.4258 8.76126 19.3736 8.86705 19.2977C8.97284 19.2218 9.06102 19.124 9.12556 19.0109L9.76297 17.8954C9.95278 17.5632 10.0325 17.1795 9.99069 16.7992C9.94889 16.4189 9.78771 16.0616 9.53028 15.7786L7.08387 13.0877C6.76484 12.7367 6.32082 12.5249 5.84727 12.4978C5.37371 12.4707 4.90843 12.6305 4.55145 12.9429ZM6.37947 4.52712H2.7162C2.47607 4.52712 2.24577 4.62251 2.07598 4.7923C1.90618 4.9621 1.81079 5.19239 1.81079 5.43252V12.2375C1.81084 12.6027 1.9213 12.9594 2.12768 13.2607C2.14964 13.2403 2.17197 13.2204 2.19468 13.2009L3.65691 11.9207C4.28163 11.374 5.09592 11.0943 5.9247 11.1417C6.75348 11.1891 7.53056 11.5598 8.08887 12.1742L10.5353 14.865C10.9855 15.3602 11.2674 15.9852 11.3406 16.6504C11.4138 17.3156 11.2745 17.987 10.9427 18.5681L10.3497 19.6057C10.6055 19.7028 10.88 19.7405 11.1526 19.7162C11.4251 19.6919 11.6886 19.6062 11.9233 19.4654L15.9161 17.0697C16.0232 17.0054 16.1158 16.9196 16.1881 16.8177C16.2604 16.7159 16.3108 16.6002 16.3362 16.4779C16.3617 16.3556 16.3615 16.2294 16.3358 16.1072C16.3101 15.985 16.2594 15.8694 16.1868 15.7677L11.418 9.08674C11.3631 9.01001 11.2856 8.95236 11.1963 8.92184C11.1071 8.89132 11.0105 8.88946 10.9201 8.91652L8.66924 9.59105C8.12128 9.75543 7.53905 9.7684 6.98431 9.6286C6.42958 9.4888 5.92303 9.20144 5.51843 8.79701L5.25314 8.53172C5.01627 8.29498 4.83489 8.00863 4.72207 7.69332C4.60924 7.378 4.56779 7.04158 4.6007 6.70831C4.63362 6.37504 4.74007 6.05322 4.91239 5.76606C5.08471 5.4789 5.3186 5.23356 5.5972 5.04772L6.37947 4.52712Z" fill="white"/>
</svg>
