<svg width="64" height="61" viewBox="0 0 64 61" fill="none" xmlns="http://www.w3.org/2000/svg">
<path fill-rule="evenodd" clip-rule="evenodd" d="M12.2344 30.4832C16.844 26.4683 22.2096 25.6505 24.3161 25.7434V32.5278L39.2789 12.7323L22.5503 0C22.5813 0.805449 22.7548 4.60965 23.2009 13.3828C4.33479 16.078 -2.17076 35.9664 0.617337 47.1188C2.84781 56.0407 7.92834 59.6342 10.1898 60.3158C10.4376 59.8511 10.9333 58.6615 10.9333 57.6206C-0.312034 48.327 6.47233 35.5017 12.2344 30.4832ZM20.6916 59.0146L23.4797 47.8623C22.5503 47.7693 20.1154 47.6392 17.8106 47.8623C15.5058 48.0853 14.3719 50.0618 14.0931 51.0221L11.398 60.3158H18.8329C19.9481 60.3158 20.5367 59.4484 20.6916 59.0146ZM31.9441 58.6812L34.818 44.6712C33.8601 44.5545 31.3502 44.391 28.9745 44.6712C26.5987 44.9514 25.43 47.4343 25.1426 48.6407L22.3645 60.3157H30.0282C31.1778 60.3157 31.7845 59.2261 31.9441 58.6812ZM47.0855 40.0556L42.5388 58.6812C42.3791 59.2261 41.7724 60.3157 40.6229 60.3157H32.9592L37.9778 40.6132L38.9071 36.7099C40.4561 36.7409 43.9071 36.7842 45.3197 36.7099C46.7324 36.6355 47.4573 35.3158 47.6432 34.6653C48.0769 32.8995 49.0744 28.8475 49.5948 26.7657C50.1153 24.6839 50.803 24.5352 51.0818 24.7211H64C63.1635 28.3146 61.4349 35.7991 61.2119 36.9887C60.9888 38.1783 60.2515 38.5996 59.9108 38.6615C56.4411 38.6306 49.2974 38.5872 48.4796 38.6615C47.6617 38.7359 47.2095 39.6219 47.0855 40.0556Z" fill="white"/>
</svg>
