<svg width="131" height="131" viewBox="0 0 131 131" fill="none" xmlns="http://www.w3.org/2000/svg">
<g clip-path="url(#clip0_2457_10)">
<path d="M83.9424 29.8272C83.5625 30.2077 83.1114 30.5096 82.6148 30.7156C82.1181 30.9215 81.5858 31.0275 81.0481 31.0275C80.5105 31.0275 79.9781 30.9215 79.4815 30.7156C78.9848 30.5096 78.5337 30.2077 78.1538 29.8272C77.0314 28.7012 75.6971 27.8085 74.2279 27.2008C72.7587 26.593 71.1837 26.2822 69.5938 26.2861C66.2369 26.2861 63.2362 27.633 61.0338 29.8272C60.6537 30.2073 60.2025 30.5088 59.7059 30.7145C59.2093 30.9202 58.677 31.0261 58.1395 31.0261C57.0539 31.0261 56.0128 30.5948 55.2452 29.8272C54.8651 29.4472 54.5636 28.9959 54.3579 28.4993C54.1522 28.0027 54.0463 27.4705 54.0463 26.933C54.0463 25.8474 54.4776 24.8063 55.2452 24.0387C57.1283 22.153 59.3651 20.6577 61.8274 19.6384C64.2896 18.619 66.9289 18.0958 69.5938 18.0986C72.2587 18.0958 74.898 18.619 77.3602 19.6384C79.8225 20.6577 82.0593 22.153 83.9424 24.0387C84.7099 24.8064 85.141 25.8474 85.141 26.933C85.141 28.0185 84.7099 29.0595 83.9424 29.8272ZM36.4099 25.9177C32.7947 28.032 29.5241 30.6868 26.7118 33.79L26.7077 33.7941C23.8879 36.9109 21.5642 40.4428 19.8179 44.2659C18.0264 48.1897 16.8724 52.3743 16.3996 56.6618C16.3405 57.1961 16.3872 57.7369 16.537 58.2533C16.6869 58.7696 16.937 59.2513 17.273 59.671C17.6091 60.0907 18.0245 60.4401 18.4955 60.6992C18.9666 60.9583 19.4841 61.1221 20.0185 61.1813C20.5528 61.2404 21.0936 61.1937 21.61 61.0438C22.1263 60.894 22.608 60.6439 23.0277 60.3078C23.4474 59.9718 23.7968 59.5564 24.0559 59.0853C24.315 58.6143 24.4788 58.0968 24.538 57.5624C24.9171 54.1388 25.8388 50.7975 27.2685 47.6637C30.0748 41.5212 34.7101 36.3955 40.5404 32.9876C41.0047 32.7164 41.4109 32.3564 41.736 31.9282C42.0611 31.5 42.2987 31.0119 42.4351 30.4919C42.5716 29.9718 42.6043 29.43 42.5314 28.8973C42.4585 28.3647 42.2813 27.8516 42.0101 27.3874C41.7389 26.9231 41.3789 26.5169 40.9507 26.1918C40.5224 25.8667 40.0344 25.6292 39.5144 25.4927C38.4641 25.2171 37.3474 25.37 36.4099 25.9177ZM98.2501 71.6408C98.2501 70.5551 98.6814 69.5138 99.4491 68.7461C100.217 67.9784 101.258 67.5471 102.344 67.5471C103.43 67.5471 104.471 67.9784 105.239 68.7461C106.006 69.5138 106.438 70.5551 106.438 71.6408C106.432 75.3342 104.998 78.8822 102.436 81.5421C99.8732 84.2021 96.3813 85.7679 92.6907 85.9116C93.6037 87.7906 94.1563 89.8785 94.1563 92.1096C94.1563 93.1953 93.725 94.2365 92.9573 95.0043C92.1896 95.772 91.1483 96.2033 90.0626 96.2033C88.9768 96.2033 87.9356 95.772 87.1678 95.0043C86.4001 94.2365 85.9688 93.1953 85.9688 92.1096C85.9666 90.4816 85.319 88.921 84.1679 87.7699C83.0167 86.6187 81.4561 85.9711 79.8282 85.9689H54.5206C53.4349 85.9689 52.3936 85.5376 51.6259 84.7699C50.8582 84.0022 50.4269 82.9609 50.4269 81.8752C50.4269 80.7894 50.8582 79.7482 51.6259 78.9805C52.3936 78.2127 53.4349 77.7814 54.5206 77.7814H63.4532C65.0808 77.7782 66.6408 77.1302 67.7917 75.9793C68.9425 74.8284 69.5905 73.2684 69.5938 71.6408C69.5938 70.5551 70.0251 69.5138 70.7928 68.7461C71.5606 67.9784 72.6018 67.5471 73.6875 67.5471C74.7733 67.5471 75.8145 67.9784 76.5823 68.7461C77.35 69.5138 77.7813 70.5551 77.7813 71.6408C77.7813 73.8473 77.2409 75.9147 76.3485 77.7814H92.1094C93.737 77.7782 95.297 77.1302 96.4479 75.9793C97.5988 74.8284 98.2468 73.2684 98.2501 71.6408Z" fill="#5D846C"/>
<path d="M131 68.4107C131 65.8398 130.816 63.3508 130.533 60.9355C126.82 28.9305 99.6747 4.10194 66.6832 4.09375H61.6397C27.592 4.09784 0.00421582 31.6856 0.00012207 65.7333C0.00012207 68.9283 0.629414 72.092 1.85207 75.0437C3.07472 77.9955 4.8668 80.6775 7.12597 82.9367C11.6886 87.4993 17.8768 90.0625 24.3293 90.0625H29.4096C30.7864 95.8866 34.0881 101.076 38.7804 104.79C43.4727 108.505 49.2811 110.528 55.2657 110.531H84.3477L97.1039 123.287C97.5332 123.716 98.0801 124.008 98.6753 124.126C99.2705 124.245 99.8875 124.184 100.448 123.952C101.009 123.72 101.488 123.326 101.826 122.822C102.163 122.318 102.343 121.725 102.344 121.118V110.191C108.637 109.408 114.566 106.812 119.409 102.719C124.253 98.6261 127.802 93.2133 129.625 87.1396C130.21 85.1827 130.546 83.1195 130.759 81.0194L130.771 80.9867C130.885 80.61 131 80.2375 131 79.8281C131 79.5784 130.984 79.3287 130.967 79.0831L130.939 78.6123C130.939 78.4813 130.955 78.3544 130.967 78.2316C130.984 78.0801 131 77.9327 131 77.7812V68.4107ZM121.781 84.802C120.27 89.8693 117.163 94.3135 112.924 97.4739C108.684 100.634 103.538 102.342 98.2501 102.344H55.2657C50.6716 102.343 46.2436 100.625 42.851 97.5276C39.4585 94.4297 37.3466 90.1755 36.9298 85.6003L36.9053 85.3383C37.0421 80.0214 39.2539 74.9691 43.0675 71.2618C46.8812 67.5545 51.994 65.4865 57.3126 65.5C58.3984 65.5 59.4396 65.0687 60.2073 64.301C60.9751 63.5332 61.4064 62.492 61.4064 61.4062C61.4064 60.3205 60.9751 59.2793 60.2073 58.5115C59.4396 57.7438 58.3984 57.3125 57.3126 57.3125C52.5045 57.3062 47.7728 58.5158 43.5576 60.829C42.7513 59.0211 41.6252 57.3735 40.2335 55.9657C39.4659 55.198 38.4248 54.7668 37.3392 54.7668C36.2537 54.7668 35.2125 55.198 34.4449 55.9657C33.6773 56.7333 33.2461 57.7744 33.2461 58.8599C33.2461 59.9455 33.6773 60.9866 34.4449 61.7542C35.6076 62.9209 36.3977 64.4152 36.6965 66.0895C32.5321 70.4111 29.8337 75.9339 28.9839 81.875H24.3293C22.2085 81.8781 20.108 81.4619 18.1486 80.6505C16.1892 79.8391 14.4095 78.6483 12.9118 77.1467C11.4109 75.6496 10.2208 73.8705 9.41007 71.9118C8.59931 69.953 8.18386 67.8533 8.18762 65.7333C8.18762 50.959 14.1645 37.6216 23.8421 27.9357C28.7997 22.964 34.6912 19.0214 41.178 16.3348C47.6647 13.6482 54.6186 12.2706 61.6397 12.2812H66.6832C94.0704 12.2731 116.815 31.9312 121.748 57.8815C117.237 53.4747 111.476 50.5681 105.25 49.5589C107.31 45.7845 108.484 41.4492 108.484 36.8438C108.484 35.758 108.053 34.7168 107.285 33.949C106.518 33.1813 105.476 32.75 104.391 32.75C103.305 32.75 102.264 33.1813 101.496 33.949C100.728 34.7168 100.297 35.758 100.297 36.8438C100.301 39.2636 99.8267 41.6604 98.9007 43.896C97.9747 46.1316 96.6155 48.162 94.9014 49.8701C93.1933 51.5841 91.163 52.9433 88.9274 53.8693C86.6917 54.7954 84.295 55.2699 81.8751 55.2656C80.7894 55.2656 79.7481 55.6969 78.9804 56.4647C78.2127 57.2324 77.7814 58.2736 77.7814 59.3594C77.7814 60.4451 78.2127 61.4864 78.9804 62.2541C79.7481 63.0218 80.7894 63.4531 81.8751 63.4531C88.2041 63.457 94.3253 61.1944 99.1303 57.0751L99.1958 57.0955C99.5498 57.2231 99.9211 57.2962 100.297 57.3125C106.528 57.3125 112.132 59.8261 116.218 63.9075C120.14 67.8317 122.468 73.071 122.751 78.6123C122.693 80.7085 122.367 82.7886 121.781 84.802Z" fill="#5D846C"/>
</g>
<defs>
<clipPath id="clip0_2457_10">
<rect width="131" height="131" fill="white"/>
</clipPath>
</defs>
</svg>
