<svg width="301" height="342" viewBox="0 0 301 342" fill="none" xmlns="http://www.w3.org/2000/svg">
<g opacity="0.83" filter="url(#filter0_d_2457_41)">
<rect x="43.6" y="39.6001" width="213.791" height="254.238" rx="11.5563" fill="url(#paint0_radial_2457_41)"/>
<rect x="44.3222" y="40.3224" width="212.347" height="252.794" rx="10.834" stroke="#3C5947" stroke-width="1.44454"/>
<path d="M103.433 78.5348C103.433 77.3445 103.698 76.2813 104.23 75.3452C104.773 74.3976 105.507 73.6638 106.432 73.1437C107.368 72.6122 108.413 72.3464 109.569 72.3464C110.921 72.3464 112.106 72.693 113.123 73.3864C114.14 74.0798 114.85 75.039 115.255 76.2639H112.464C112.187 75.6861 111.794 75.2528 111.285 74.9639C110.788 74.6749 110.21 74.5305 109.552 74.5305C108.847 74.5305 108.217 74.6981 107.662 75.0332C107.119 75.3568 106.692 75.819 106.38 76.4199C106.079 77.0209 105.929 77.7258 105.929 78.5348C105.929 79.3321 106.079 80.0371 106.38 80.6496C106.692 81.2505 107.119 81.7185 107.662 82.0536C108.217 82.3772 108.847 82.539 109.552 82.539C110.21 82.539 110.788 82.3946 111.285 82.1056C111.794 81.8052 112.187 81.366 112.464 80.7882H115.255C114.85 82.0248 114.14 82.9897 113.123 83.6831C112.117 84.3649 110.933 84.7058 109.569 84.7058C108.413 84.7058 107.368 84.4458 106.432 83.9258C105.507 83.3942 104.773 82.6603 104.23 81.7243C103.698 80.7882 103.433 79.7251 103.433 78.5348ZM122.944 84.7231C121.811 84.7231 120.771 84.4574 119.824 83.9258C118.876 83.3942 118.125 82.6603 117.57 81.7243C117.016 80.7767 116.738 79.7077 116.738 78.5174C116.738 77.3387 117.016 76.2813 117.57 75.3452C118.125 74.3976 118.876 73.658 119.824 73.1264C120.771 72.5948 121.811 72.329 122.944 72.329C124.088 72.329 125.128 72.5948 126.064 73.1264C127.012 73.658 127.757 74.3976 128.3 75.3452C128.855 76.2813 129.132 77.3387 129.132 78.5174C129.132 79.7077 128.855 80.7767 128.3 81.7243C127.757 82.6603 127.012 83.3942 126.064 83.9258C125.117 84.4574 124.076 84.7231 122.944 84.7231ZM122.944 82.5563C123.672 82.5563 124.313 82.3946 124.868 82.071C125.423 81.7358 125.856 81.262 126.168 80.6496C126.48 80.0371 126.636 79.3264 126.636 78.5174C126.636 77.7085 126.48 77.0035 126.168 76.4026C125.856 75.7901 125.423 75.3221 124.868 74.9985C124.313 74.6749 123.672 74.5132 122.944 74.5132C122.216 74.5132 121.569 74.6749 121.003 74.9985C120.448 75.3221 120.014 75.7901 119.702 76.4026C119.39 77.0035 119.234 77.7085 119.234 78.5174C119.234 79.3264 119.39 80.0371 119.702 80.6496C120.014 81.262 120.448 81.7358 121.003 82.071C121.569 82.3946 122.216 82.5563 122.944 82.5563ZM141.287 84.6018H138.86L133.365 76.2986V84.6018H130.938V72.485H133.365L138.86 80.8056V72.485H141.287V84.6018ZM151.919 72.5024V74.4612H148.694V84.6018H146.268V74.4612H143.043V72.5024H151.919ZM159.93 84.6018L157.26 79.8868H156.116V84.6018H153.689V72.5024H158.231C159.167 72.5024 159.964 72.6699 160.623 73.0051C161.282 73.3286 161.773 73.7736 162.097 74.3398C162.432 74.8945 162.599 75.5186 162.599 76.2119C162.599 77.0093 162.368 77.7316 161.906 78.3787C161.444 79.0143 160.756 79.4535 159.843 79.6962L162.738 84.6018H159.93ZM156.116 78.0667H158.144C158.803 78.0667 159.294 77.9107 159.618 77.5987C159.941 77.2751 160.103 76.8302 160.103 76.2639C160.103 75.7092 159.941 75.2817 159.618 74.9812C159.294 74.6692 158.803 74.5132 158.144 74.5132H156.116V78.0667ZM172.213 82.2963H167.394L166.597 84.6018H164.049L168.4 72.485H171.225L175.576 84.6018H173.011L172.213 82.2963ZM171.555 80.3549L169.804 75.2932L168.053 80.3549H171.555ZM176.613 78.5348C176.613 77.3445 176.879 76.2813 177.411 75.3452C177.954 74.3976 178.688 73.6638 179.612 73.1437C180.548 72.6122 181.594 72.3464 182.75 72.3464C184.102 72.3464 185.286 72.693 186.303 73.3864C187.32 74.0798 188.031 75.039 188.435 76.2639H185.644C185.367 75.6861 184.974 75.2528 184.466 74.9639C183.969 74.6749 183.391 74.5305 182.732 74.5305C182.027 74.5305 181.397 74.6981 180.843 75.0332C180.3 75.3568 179.872 75.819 179.56 76.4199C179.26 77.0209 179.109 77.7258 179.109 78.5348C179.109 79.3321 179.26 80.0371 179.56 80.6496C179.872 81.2505 180.3 81.7185 180.843 82.0536C181.397 82.3772 182.027 82.539 182.732 82.539C183.391 82.539 183.969 82.3946 184.466 82.1056C184.974 81.8052 185.367 81.366 185.644 80.7882H188.435C188.031 82.0248 187.32 82.9897 186.303 83.6831C185.298 84.3649 184.113 84.7058 182.75 84.7058C181.594 84.7058 180.548 84.4458 179.612 83.9258C178.688 83.3942 177.954 82.6603 177.411 81.7243C176.879 80.7882 176.613 79.7251 176.613 78.5348ZM198.742 72.5024V74.4612H195.518V84.6018H193.091V74.4612H189.867V72.5024H198.742Z" fill="#69D48D"/>
<path fill-rule="evenodd" clip-rule="evenodd" d="M94.1588 116.16H209.722V113.271H94.1588V116.16ZM82.6025 127.717H221.278V124.828H82.6025V127.717ZM221.278 139.273H82.6025V136.384H221.278V139.273ZM82.6025 150.829H221.278V147.94H82.6025V150.829ZM221.278 162.386H82.6025V159.497H221.278V162.386ZM82.6025 173.942H221.278V171.053H82.6025V173.942ZM221.278 185.498H82.6025V182.609H221.278V185.498ZM82.6025 197.055H221.278V194.166H82.6025V197.055ZM221.278 208.611H82.6025V205.722H221.278V208.611ZM82.6025 220.167H221.278V217.278H82.6025V220.167ZM221.278 231.724H82.6025V228.834H221.278V231.724ZM92.7143 243.28H208.277V240.391H92.7143V243.28Z" fill="#3C5947"/>
</g>
<defs>
<filter id="filter0_d_2457_41" x="-2.28882e-05" y="9.91821e-05" width="300.992" height="341.439" filterUnits="userSpaceOnUse" color-interpolation-filters="sRGB">
<feFlood flood-opacity="0" result="BackgroundImageFix"/>
<feColorMatrix in="SourceAlpha" type="matrix" values="0 0 0 0 0 0 0 0 0 0 0 0 0 0 0 0 0 0 127 0" result="hardAlpha"/>
<feMorphology radius="11" operator="dilate" in="SourceAlpha" result="effect1_dropShadow_2457_41"/>
<feOffset dy="4"/>
<feGaussianBlur stdDeviation="16.3"/>
<feComposite in2="hardAlpha" operator="out"/>
<feColorMatrix type="matrix" values="0 0 0 0 0 0 0 0 0 0 0 0 0 0 0 0 0 0 0.39 0"/>
<feBlend mode="normal" in2="BackgroundImageFix" result="effect1_dropShadow_2457_41"/>
<feBlend mode="normal" in="SourceGraphic" in2="effect1_dropShadow_2457_41" result="shape"/>
</filter>
<radialGradient id="paint0_radial_2457_41" cx="0" cy="0" r="1" gradientUnits="userSpaceOnUse" gradientTransform="translate(154.651 58.4787) rotate(91.0114) scale(235.397 197.947)">
<stop stop-color="#1E2B23"/>
<stop offset="1" stop-color="#111914"/>
</radialGradient>
</defs>
</svg>
