<svg width="22" height="22" viewBox="0 0 22 22" fill="none" xmlns="http://www.w3.org/2000/svg">
<path d="M10.8649 12.2231C10.9934 12.2231 11.1012 12.1796 11.1881 12.0927C11.2744 12.0064 11.3176 11.8989 11.3176 11.7704V7.24334C11.3176 7.11477 11.2741 7.00733 11.1872 6.92101C11.1003 6.83409 10.9928 6.79063 10.8649 6.79063C10.7369 6.79063 10.6295 6.83409 10.5425 6.92101C10.4556 7.00793 10.4122 7.11537 10.4122 7.24334V11.7704C10.4122 11.8989 10.4556 12.0064 10.5425 12.0927C10.6295 12.1796 10.7372 12.2231 10.8658 12.2231M13.582 10.865C13.7099 10.865 13.8174 10.8215 13.9043 10.7346C13.9906 10.6483 14.0338 10.5408 14.0338 10.4123V8.14874C14.0338 8.02017 13.9903 7.91273 13.9034 7.82642C13.8165 7.7395 13.709 7.69604 13.5811 7.69604C13.4531 7.69604 13.3457 7.7395 13.2587 7.82642C13.1718 7.91273 13.1284 8.02017 13.1284 8.14874V10.4123C13.1284 10.5408 13.1718 10.6483 13.2587 10.7346C13.3457 10.8215 13.4534 10.865 13.582 10.865ZM8.14955 10.4123C8.27751 10.4123 8.38495 10.3688 8.47187 10.2819C8.55819 10.1956 8.60134 10.0881 8.60134 9.95955V8.14874C8.60134 8.02017 8.55788 7.91273 8.47096 7.82642C8.38405 7.7395 8.2766 7.69604 8.14864 7.69604C8.02068 7.69604 7.91323 7.7395 7.82632 7.82642C7.7394 7.91273 7.69594 8.02017 7.69594 8.14874V9.95955C7.69594 10.0881 7.7394 10.1956 7.82632 10.2819C7.91323 10.3688 8.02098 10.4123 8.14955 10.4123ZM6.79053 19.0136C6.66196 19.0136 6.55452 18.9701 6.46821 18.8832C6.38189 18.7963 6.33843 18.6889 6.33783 18.5609V15.6075C5.47769 14.8228 4.81011 13.9409 4.33507 12.9619C3.86004 11.9828 3.62222 10.9778 3.62161 9.94688C3.62161 7.93929 4.32572 6.2323 5.73392 4.8259C7.14273 3.41951 8.85304 2.71631 10.8649 2.71631C12.4958 2.71631 13.9698 3.21277 15.2869 4.2057C16.6033 5.19863 17.4574 6.48129 17.8492 8.05367L18.7872 11.7686C18.8475 11.9979 18.8047 12.2065 18.6586 12.3942C18.5125 12.5819 18.3175 12.6758 18.0737 12.6758H16.2973V15.7406C16.2973 16.1426 16.1539 16.4866 15.8672 16.7727C15.5811 17.0594 15.2371 17.2028 14.8351 17.2028H12.6757V18.5609C12.6757 18.6895 12.6322 18.7969 12.5453 18.8832C12.4584 18.9695 12.3509 19.013 12.223 19.0136H6.79053Z" fill="white"/>
</svg>
