<svg width="22" height="22" viewBox="0 0 22 22" fill="none" xmlns="http://www.w3.org/2000/svg">
<g clip-path="url(#clip0_1412_1653)">
<path d="M10.8649 10.3218C16.866 10.3218 21.7297 8.2931 21.7297 5.79333C21.7297 3.29357 16.866 1.26489 10.8649 1.26489C4.86372 1.26489 0 3.29357 0 5.79333C0 8.2931 4.86372 10.3218 10.8649 10.3218ZM10.8649 17.5622C6.71839 17.5622 3.0515 16.5648 0.738471 15.0242C0.267377 15.5335 0 16.081 0 16.6582C0 19.158 4.86372 21.1866 10.8649 21.1866C16.866 21.1866 21.7297 19.158 21.7297 16.6582C21.7297 16.081 21.4624 15.5335 20.9913 15.0285C18.6782 16.5648 15.0113 17.5622 10.8649 17.5622ZM10.8649 12.1298C6.71839 12.1298 3.0515 11.1324 0.738471 9.59179C0.267377 10.1011 0 10.6486 0 11.2258C0 13.7255 4.86372 15.7542 10.8649 15.7542C16.866 15.7542 21.7297 13.7255 21.7297 11.2258C21.7297 10.6486 21.4624 10.1011 20.9913 9.59604C18.6782 11.1324 15.0113 12.1298 10.8649 12.1298Z" fill="white"/>
</g>
<defs>
<clipPath id="clip0_1412_1653">
<rect width="21.7297" height="21.7297" fill="white"/>
</clipPath>
</defs>
</svg>
